<svg width="25" height="24" viewBox="0 0 25 24" fill="none" xmlns="http://www.w3.org/2000/svg">
<g clip-path="url(#clip0_7532_29176)">
<path d="M9.83194 11.5006C7.075 11.5006 4.83203 9.25781 4.83203 6.50088C4.83203 3.74395 7.075 1.50098 9.83194 1.50098C12.5889 1.50098 14.8318 3.74395 14.8318 6.50088C14.8318 9.25781 12.5889 11.5006 9.83194 11.5006ZM9.83194 3.00093C7.90206 3.00093 6.33198 4.57083 6.33198 6.50088C6.33198 8.43075 7.90206 10.0006 9.83194 10.0006C11.7618 10.0006 13.3319 8.43075 13.3319 6.50088C13.3319 4.57083 11.7618 3.00093 9.83194 3.00093Z" fill="white"/>
<path d="M18.0815 22.4997H1.58201C1.16802 22.4997 0.832031 22.1637 0.832031 21.7497V18.2498C0.832031 15.6309 2.96295 13.5 5.58182 13.5H14.0817C16.7006 13.5 18.8315 15.6309 18.8315 18.2498V21.7497C18.8315 22.1637 18.4955 22.4997 18.0815 22.4997ZM2.33198 20.9998H17.3315V18.2498C17.3315 16.458 15.8735 15 14.0817 15H5.58182C3.79001 15 2.33198 16.458 2.33198 18.2498V20.9998Z" fill="white"/>
<path d="M24.0817 11.75H15.582C15.168 11.75 14.832 11.414 14.832 11C14.832 10.586 15.168 10.25 15.582 10.25H24.0817C24.4957 10.25 24.8317 10.586 24.8317 11C24.8317 11.414 24.4957 11.75 24.0817 11.75Z" fill="white"/>
<path d="M20.0818 15.7504C19.8898 15.7504 19.6979 15.6774 19.5518 15.5305C19.2588 15.2374 19.2588 14.7624 19.5518 14.4695L23.0217 10.9995L19.5518 7.52962C19.2588 7.23666 19.2588 6.7617 19.5518 6.46874C19.8447 6.17578 20.3197 6.17578 20.6128 6.46874L24.6126 10.4686C24.9056 10.7615 24.9056 11.2367 24.6126 11.5296L20.6128 15.5294C20.4658 15.6774 20.2737 15.7504 20.0818 15.7504Z" fill="white"/>
</g>
<defs>
<clipPath id="clip0_7532_29176">
<rect width="24" height="24" fill="white" transform="translate(0.832031)"/>
</clipPath>
</defs>
</svg>
