<svg width="25" height="25" viewBox="0 0 25 25" fill="none" xmlns="http://www.w3.org/2000/svg">
<g clip-path="url(#clip0_7533_29187)">
<path d="M19.8681 15.7709C19.3767 15.2593 18.7841 14.9858 18.156 14.9858C17.5329 14.9858 16.9352 15.2543 16.4236 15.7659L14.823 17.3615C14.6913 17.2905 14.5596 17.2247 14.4329 17.1588C14.2506 17.0677 14.0784 16.9815 13.9315 16.8904C12.4321 15.9381 11.0695 14.6971 9.76268 13.0913C9.12951 12.291 8.70401 11.6173 8.39503 10.9335C8.81039 10.5536 9.19536 10.1585 9.57019 9.7786C9.71202 9.63677 9.85385 9.48987 9.99568 9.34804C11.0594 8.28432 11.0594 6.90654 9.99568 5.84281L8.61284 4.45997C8.45581 4.30294 8.29372 4.14085 8.14176 3.97876C7.83784 3.66471 7.51872 3.34052 7.18947 3.0366C6.69813 2.55033 6.11055 2.29199 5.49257 2.29199C4.8746 2.29199 4.27689 2.55033 3.77035 3.0366C3.76529 3.04167 3.76529 3.04167 3.76022 3.04673L2.038 4.78415C1.38963 5.43252 1.01986 6.22272 0.938812 7.13955C0.817243 8.61863 1.25286 9.99641 1.58718 10.898C2.40777 13.1116 3.63359 15.1631 5.46218 17.3615C7.68081 20.0106 10.3503 22.1026 13.3996 23.5767C14.5646 24.1288 16.1197 24.7822 17.8571 24.8936C17.9635 24.8987 18.0749 24.9038 18.1762 24.9038C19.3463 24.9038 20.329 24.4834 21.099 23.6476C21.104 23.6374 21.1142 23.6324 21.1192 23.6222C21.3826 23.3031 21.6865 23.0144 22.0057 22.7054C22.2235 22.4977 22.4463 22.2799 22.6642 22.052C23.1656 21.5302 23.429 20.9224 23.429 20.2994C23.429 19.6713 23.1606 19.0685 22.649 18.5619L19.8681 15.7709ZM21.6815 21.1048C21.6764 21.1098 21.6764 21.1048 21.6815 21.1048C21.4839 21.3175 21.2813 21.51 21.0635 21.7227C20.7343 22.0368 20.3999 22.366 20.0859 22.7358C19.5743 23.2829 18.9715 23.5412 18.1813 23.5412C18.1053 23.5412 18.0243 23.5412 17.9483 23.5361C16.4439 23.4399 15.0459 22.8523 13.9973 22.3508C11.1303 20.9629 8.61284 18.9925 6.52084 16.4953C4.79355 14.4134 3.63865 12.4886 2.87378 10.4219C2.4027 9.16063 2.23048 8.17795 2.30646 7.25098C2.35711 6.65834 2.58506 6.167 3.00548 5.74657L4.73277 4.01928C4.98097 3.78627 5.24437 3.65964 5.50271 3.65964C5.82182 3.65964 6.08016 3.85212 6.24225 4.01422C6.24731 4.01928 6.25238 4.02435 6.25744 4.02941C6.56643 4.31814 6.86022 4.61699 7.16921 4.93611C7.32624 5.0982 7.48833 5.2603 7.65042 5.42745L9.03326 6.8103C9.57019 7.34723 9.57019 7.84363 9.03326 8.38056C8.88637 8.52746 8.74454 8.67435 8.59764 8.81618C8.17215 9.2518 7.76692 9.65703 7.32624 10.0521C7.31611 10.0623 7.30597 10.0673 7.30091 10.0775C6.86529 10.5131 6.94633 10.9386 7.03751 11.2273C7.04258 11.2425 7.04764 11.2577 7.05271 11.2729C7.41235 12.1441 7.91888 12.9647 8.68882 13.9423L8.69388 13.9474C10.0919 15.6696 11.5659 17.0119 13.1919 18.0402C13.3996 18.1719 13.6124 18.2783 13.815 18.3796C13.9973 18.4708 14.1695 18.5569 14.3164 18.6481C14.3367 18.6582 14.357 18.6734 14.3772 18.6835C14.5494 18.7696 14.7115 18.8101 14.8787 18.8101C15.2991 18.8101 15.5625 18.5467 15.6486 18.4606L17.381 16.7283C17.5532 16.5561 17.8267 16.3484 18.1459 16.3484C18.4599 16.3484 18.7182 16.5459 18.8753 16.7181C18.8803 16.7232 18.8803 16.7232 18.8854 16.7283L21.6764 19.5193C22.1981 20.036 22.1981 20.5678 21.6815 21.1048Z" fill="white"/>
<path d="M13.8715 6.6124C15.1986 6.83528 16.4042 7.46338 17.3666 8.4258C18.329 9.38822 18.952 10.5938 19.18 11.9209C19.2357 12.2552 19.5244 12.4882 19.8537 12.4882C19.8942 12.4882 19.9296 12.4832 19.9702 12.4781C20.345 12.4173 20.5932 12.0627 20.5324 11.6879C20.2589 10.0822 19.4991 8.61829 18.3391 7.45832C17.1792 6.29835 15.7153 5.53854 14.1095 5.26501C13.7347 5.20423 13.3852 5.45243 13.3193 5.8222C13.2535 6.19198 13.4966 6.55162 13.8715 6.6124Z" fill="white"/>
<path d="M24.8708 11.4902C24.4199 8.84611 23.1739 6.44006 21.2592 4.52535C19.3444 2.61064 16.9384 1.36456 14.2943 0.913746C13.9245 0.847896 13.575 1.10116 13.5091 1.47094C13.4484 1.84577 13.6966 2.19528 14.0714 2.26113C16.4319 2.6613 18.5846 3.78074 20.2967 5.48777C22.0088 7.19986 23.1232 9.35264 23.5234 11.7131C23.5791 12.0474 23.8678 12.2804 24.1971 12.2804C24.2376 12.2804 24.273 12.2754 24.3136 12.2703C24.6833 12.2146 24.9366 11.86 24.8708 11.4902Z" fill="white"/>
</g>
<defs>
<clipPath id="clip0_7533_29187">
<rect width="24" height="24" fill="white" transform="translate(0.902344 0.90332)"/>
</clipPath>
</defs>
</svg>
